<?xml version="1.0" encoding="UTF-8"?>
<svg width="329px" height="79px" viewBox="0 0 329 79" version="1.1" xmlns="http://www.w3.org/2000/svg" xmlns:xlink="http://www.w3.org/1999/xlink">
    <title>logo</title>
    <g id="Design-5" stroke="none" stroke-width="1" fill="none" fill-rule="evenodd">
        <g id="5-Vert-Homepage" transform="translate(-60.000000, -413.000000)">
            <g id="logo" transform="translate(60.000000, 413.000000)">
                <polygon id="Fill-1" fill="#FFFFFF" points="0 79 80 79 80 0 0 0"></polygon>
                <g transform="translate(63.000000, 26.000000)">
                    <path d="M6.15579115,13.2062036 C6.15579115,14.8971481 4.77766176,16.2681251 3.07789558,16.2681251 C1.37812939,16.2681251 0,14.8971481 0,13.2062036 C0,11.5152591 1.37812939,10.1442821 3.07789558,10.1442821 C4.77766176,10.1442821 6.15579115,11.5152591 6.15579115,13.2062036" id="Fill-2" fill="#005F85"></path>
                    <path d="M51.9006753,14.4361471 C51.0808312,15.2757885 49.3693425,16.6285441 46.0635903,16.6285441 C41.304245,16.6285441 37.5772146,13.503941 37.5772146,8.32615237 C37.5772146,3.12431149 41.3518677,0.0230318302 46.0635903,0.0230318302 C49.3927875,0.0230318302 51.1980564,1.3991108 51.6193347,1.84225487 L50.4478148,4.9668579 C50.1430291,4.57108943 48.4073627,3.28830395 46.2745958,3.28830395 C43.5315248,3.28830395 41.4214702,5.10752699 41.4214702,8.2554534 C41.4214702,11.4041087 43.625305,13.2007372 46.2745958,13.2007372 C48.2908701,13.2007372 49.7444633,12.4077425 50.6346425,11.498131 L51.9006753,14.4361471 Z" id="Fill-4" fill="#FFFFFF"></path>
                    <path d="M66.7419786,10.1684072 L64.7257042,4.38421091 L62.7094298,10.1684072 L66.7419786,10.1684072 Z M72.8838492,16.348372 L68.7582529,16.348372 L67.6094454,13.1064233 L61.8426956,13.1064233 L60.6931555,16.348372 L56.7551196,16.348372 L62.8501001,0.233379494 L66.788136,0.233379494 L72.8838492,16.348372 Z" id="Fill-6" fill="#FFFFFF"></path>
                    <path d="M86.8342406,9.81819223 C86.2708267,9.42242376 85.638543,9.37577701 84.8179662,9.37577701 L82.7313567,9.37577701 L82.7313567,13.4792328 L84.8179662,13.4792328 C85.638543,13.4792328 86.2708267,13.4325861 86.8342406,13.0368176 C87.3969218,12.6636437 87.6548173,12.1272061 87.6548173,11.4267761 C87.6548173,10.7052092 87.3969218,10.2154184 86.8342406,9.81819223 M85.9902187,3.38094147 C85.5447628,3.10178986 85.1227519,3.05514312 84.3021751,3.05514312 L82.7313567,3.05514312 L82.7313567,6.76355931 L84.2083949,6.76355931 C85.0524167,6.76355931 85.5447628,6.71618371 85.9902187,6.41297987 C86.4583871,6.08718152 86.7873505,5.66736081 86.7873505,4.87436616 C86.7873505,4.10396601 86.4583871,3.6615508 85.9902187,3.38094147 M89.7179818,15.2991847 C88.6856669,16.0448038 87.2328064,16.3480076 85.5674752,16.3480076 L78.9567035,16.3480076 L78.9567035,0.256338439 L84.4662904,0.256338439 C85.9433286,0.256338439 87.3727441,0.3729553 88.4519491,0.932716236 C89.5304214,1.49174832 90.5143809,2.54275778 90.5143809,4.31460522 C90.5143809,6.08718152 89.3655734,7.43920825 88.1471634,7.85902896 L88.1471634,7.90640456 C90.1627051,8.39619537 91.499073,9.74822211 91.499073,11.7299799 C91.499073,13.5040139 90.7495641,14.5528368 89.7179818,15.2991847" id="Fill-8" fill="#FFFFFF"></path>
                    <polygon id="Fill-10" fill="#FFFFFF" points="98.2515407 16.3479347 102.050372 16.3479347 102.050372 0.256265553 98.2515407 0.256265553"></polygon>
                    <path d="M124.322144,16.3480076 L120.430266,16.3480076 L113.327148,5.43339824 C113.327148,5.43339824 113.397483,7.36996699 113.397483,9.07257317 L113.397483,16.3480076 L109.693165,16.3480076 L109.693165,0.256338439 L113.748426,0.256338439 L120.688161,11.0783832 C120.688161,11.0783832 120.617826,9.25843129 120.617826,7.55582512 L120.617826,0.256338439 L124.322144,0.256338439 L124.322144,16.3480076 Z" id="Fill-12" fill="#FFFFFF"></path>
                    <polygon id="Fill-13" fill="#FFFFFF" points="142.656467 16.3480076 131.965524 16.3480076 131.965524 0.256338439 142.445461 0.256338439 142.445461 3.26432461 135.74091 3.26432461 135.74091 6.55292011 142.069608 6.55292011 142.069608 9.56163513 135.74091 9.56163513 135.74091 13.2933747 142.656467 13.2933747"></polygon>
                    <polygon id="Fill-14" fill="#FFFFFF" points="160.450601 3.24143855 156.278115 3.24143855 156.278115 16.3477161 152.480016 16.3477161 152.480016 3.24143855 148.30753 3.24143855 148.30753 0.256046897 160.450601 0.256046897"></polygon>
                    <polygon id="Fill-15" fill="#FFFFFF" points="188.325961 0.256265553 183.637683 16.3479347 179.81614 16.3479347 176.744838 5.31670849 173.673536 16.3479347 169.852726 16.3479347 165.163716 0.256265553 169.125929 0.256265553 171.939335 11.1009048 174.846522 0.256265553 178.643887 0.256265553 181.573786 11.1009048 184.36448 0.256265553"></polygon>
                    <path d="M201.714184,3.21862538 C199.018003,3.21862538 196.979016,5.15300757 196.979016,8.23242157 C196.979016,11.3118356 199.018003,13.27027 201.714184,13.27027 C204.410364,13.27027 206.450084,11.3118356 206.450084,8.23242157 C206.450084,5.17778865 204.410364,3.21862538 201.714184,3.21862538 M201.714184,16.6281067 C196.907948,16.6281067 193.134028,13.5268271 193.134028,8.32644391 C193.134028,3.12460303 196.907948,0 201.714184,0 C206.520419,0 210.295072,3.12460303 210.295072,8.32644391 C210.295072,13.5268271 206.520419,16.6281067 201.714184,16.6281067" id="Fill-16" fill="#FFFFFF"></path>
                    <path d="M224.338511,3.59158068 C223.86961,3.24173009 223.260039,3.17175998 222.393304,3.17175998 L220.892821,3.17175998 L220.892821,7.29999688 L222.393304,7.29999688 C223.260039,7.29999688 223.86961,7.20597453 224.338511,6.85612395 C224.830857,6.50700222 225.159088,6.06312929 225.159088,5.22421674 C225.159088,4.40716985 224.830857,3.94143126 224.338511,3.59158068 L224.338511,3.59158068 Z M229.918433,16.3480076 L225.511496,16.3480076 L222.111964,10.1913662 L220.916266,10.1913662 L220.916266,16.3480076 L217.118168,16.3480076 L217.118168,0.256338439 L222.931808,0.256338439 C224.737077,0.256338439 226.14378,0.629512396 227.198807,1.39918368 C228.27728,2.19217834 228.980631,3.47496382 228.980631,5.08354765 C228.980631,8.13818057 227.011247,9.32840141 225.816282,9.70157537 L229.918433,16.3480076 Z" id="Fill-17" fill="#FFFFFF"></path>
                    <polygon id="Fill-18" fill="#FFFFFF" points="249.541574 16.3480076 244.993234 16.3480076 240.937973 9.63160525 239.648496 11.0536021 239.648496 16.3480076 235.873842 16.3480076 235.873842 0.256338439 239.648496 0.256338439 239.648496 6.13382826 244.642291 0.256338439 249.143008 0.256338439 243.446594 6.66953697"></polygon>
                    <path d="M264.100951,15.2988203 C262.952876,16.2084318 261.452393,16.6282525 259.717459,16.6282525 C257.372954,16.6282525 255.286344,15.4154372 253.974154,14.2026218 L255.849026,11.4511927 C257.021278,12.6640081 258.826547,13.4795973 260.069135,13.4795973 C261.287545,13.4795973 262.225347,12.8972418 262.225347,11.8236378 C262.225347,10.7281682 261.030382,10.3076186 260.32703,10.0517904 C259.623679,9.79523329 258.404536,9.37541258 257.8653,9.14217886 C257.466734,8.95559188 256.646157,8.65238804 255.942806,7.97601025 C255.239454,7.32295582 254.676773,6.39002093 254.676773,4.87400173 C254.676773,3.33538801 255.427015,2.12257265 256.364817,1.35217251 C257.278441,0.582501223 258.756212,0.0693870326 260.631816,0.0693870326 C262.506687,0.0693870326 264.664365,0.956404036 265.765549,2.05260253 L264.147841,4.68741475 C263.210039,3.75520871 261.757178,3.05477869 260.538036,3.05477869 C259.318893,3.05477869 258.427981,3.52197499 258.427981,4.50155663 C258.427981,5.48040941 259.342338,5.85358337 260.069135,6.13419269 C260.772486,6.4133443 261.968184,6.833165 262.483242,7.04380421 C262.928698,7.2056101 264.007171,7.62615966 264.733967,8.3491842 C265.413874,9.025562 266,10.0044148 266,11.4511927 C266,12.9898064 265.273936,14.3892088 264.100951,15.2988203" id="Fill-19" fill="#FFFFFF"></path>
                    <path d="M46.3706472,33.6995762 C45.9867345,34.038494 45.0848327,34.9896503 42.9974905,34.9896503 C40.8976931,34.9896503 39.0521281,33.6121136 39.0521281,31.0975625 C39.0521281,28.5822826 40.8976931,27.2156787 43.0194702,27.2156787 C45.030616,27.2156787 45.8980829,28.2659593 46.1405926,28.5283473 L44.9639441,29.5451005 C44.6459706,29.1945211 44.0525178,28.6814069 43.0194702,28.6814069 C41.7995949,28.6814069 40.8544663,29.5669662 40.8544663,31.0975625 C40.8544663,32.62743 41.8215747,33.5129892 43.0524398,33.5129892 C44.2825724,33.5129892 44.6349808,33.0326735 44.6349808,33.0326735 L44.6349808,31.9175248 L43.04145,31.9175248 L43.04145,30.5727866 L46.3706472,30.5727866 L46.3706472,33.6995762 Z" id="Fill-20" fill="#FFFFFF"></path>
                    <path d="M56.4926083,28.8886934 C56.2728109,28.7247009 55.987807,28.6919024 55.5804493,28.6919024 L54.8778304,28.6919024 L54.8778304,30.6277423 L55.5804493,30.6277423 C55.987807,30.6277423 56.2728109,30.5832821 56.4926083,30.4200185 C56.7233955,30.2552972 56.8772536,30.0483023 56.8772536,29.6547204 C56.8772536,29.2713424 56.7233955,29.0534147 56.4926083,28.8886934 L56.4926083,28.8886934 Z M59.1081968,34.8689518 L57.0421017,34.8689518 L55.4485709,31.9826845 L54.8888203,31.9826845 L54.8888203,34.8689518 L53.1084617,34.8689518 L53.1084617,27.3252986 L55.8339489,27.3252986 C56.679436,27.3252986 57.3388281,27.5009527 57.8333721,27.8617361 C58.3396387,28.2334524 58.6686021,28.8347581 58.6686021,29.5883945 C58.6686021,31.0205954 57.7454532,31.5781697 57.1849699,31.7538239 L59.1081968,34.8689518 Z" id="Fill-21" fill="#FFFFFF"></path>
                    <path d="M68.8347424,28.7143512 C67.570175,28.7143512 66.6147892,29.6210473 66.6147892,31.0649098 C66.6147892,32.5073146 67.570175,33.4264012 68.8347424,33.4264012 C70.0985772,33.4264012 71.053963,32.5073146 71.053963,31.0649098 C71.053963,29.6327089 70.0985772,28.7143512 68.8347424,28.7143512 M68.8347424,35 C66.5818196,35 64.8124509,33.5466624 64.8124509,31.1079122 C64.8124509,28.669891 66.5818196,27.2056205 68.8347424,27.2056205 C71.0869326,27.2056205 72.8563013,28.669891 72.8563013,31.1079122 C72.8563013,33.5466624 71.0869326,35 68.8347424,35" id="Fill-22" fill="#FFFFFF"></path>
                    <path d="M85.6487269,31.7208796 C85.6487269,32.7806354 85.4611665,33.513135 84.9233957,34.092575 C84.395882,34.6610822 83.571642,34.9890672 82.4726552,34.9890672 C81.3619459,34.9890672 80.5494284,34.6610822 80.0109249,34.092575 C79.4834112,33.513135 79.2965835,32.7806354 79.2965835,31.7208796 L79.2965835,27.3258817 L81.0871992,27.3258817 L81.0871992,31.7208796 C81.0871992,32.2558595 81.1318914,32.6720359 81.3846583,32.9781552 C81.6264354,33.2616799 81.9781112,33.447538 82.4726552,33.447538 C82.9671992,33.447538 83.3181423,33.2616799 83.5599194,32.9781552 C83.813419,32.6720359 83.8573785,32.2558595 83.8573785,31.7208796 L83.8573785,27.3258817 L85.6487269,27.3258817 L85.6487269,31.7208796 Z" id="Fill-23" fill="#FFFFFF"></path>
                    <path d="M95.7921549,28.9001364 C95.5723575,28.7470768 95.3195906,28.6924126 94.9349452,28.6924126 L94.2425836,28.6924126 L94.2425836,30.7142575 L94.9349452,30.7142575 C95.3195906,30.7142575 95.5723575,30.6603222 95.7921549,30.5072625 C96.0009624,30.3542029 96.1548205,30.0808821 96.1548205,29.698233 C96.1548205,29.3148551 96.0009624,29.053196 95.7921549,28.9001364 M97.1658883,31.513083 C96.6610871,31.9278017 95.9679928,32.0808613 95.1877122,32.0808613 L94.2535734,32.0808613 L94.2535734,34.8687331 L92.4739475,34.8687331 L92.4739475,27.3258088 L95.1877122,27.3258088 C95.9679928,27.3258088 96.6610871,27.4788684 97.1658883,27.894316 C97.6714222,28.3090347 97.9571588,28.8884747 97.9571588,29.698233 C97.9571588,30.5072625 97.6714222,31.0867026 97.1658883,31.513083" id="Fill-24" fill="#FFFFFF"></path>
                </g>
            </g>
        </g>
    </g>
</svg>