<?xml version="1.0" encoding="UTF-8"?> <!-- Generator: Adobe Illustrator 25.0.1, SVG Export Plug-In . SVG Version: 6.00 Build 0) --> <svg xmlns="http://www.w3.org/2000/svg" xmlns:xlink="http://www.w3.org/1999/xlink" version="1.1" id="Layer_1" x="0px" y="0px" width="508px" height="86px" viewBox="0 0 508 86" style="enable-background:new 0 0 508 86;" xml:space="preserve"> <style type="text/css"> .st0{fill:#008D99;} .st1{fill:none;} .st2{fill:#FFFFFF;} </style> <g id="Layer_3"> <g> <path d="M206.61,79.02l9.95-25.91h3.69l10.61,25.91h-3.91l-3.02-7.85h-10.84l-2.85,7.85H206.61z M214.09,68.38h8.79l-2.7-7.18 c-0.83-2.18-1.44-3.97-1.84-5.37c-0.33,1.66-0.8,3.31-1.4,4.95L214.09,68.38z"></path> <path d="M250.61,53.11h3.43v14.97c0,2.6-0.29,4.67-0.88,6.2s-1.65,2.78-3.19,3.74c-1.54,0.96-3.56,1.44-6.05,1.44 c-2.43,0-4.41-0.42-5.96-1.25c-1.54-0.84-2.65-2.05-3.31-3.63s-0.99-3.75-0.99-6.5V53.11h3.43v14.95c0,2.25,0.21,3.91,0.63,4.98 s1.14,1.89,2.16,2.47c1.02,0.58,2.27,0.87,3.74,0.87c2.52,0,4.32-0.57,5.39-1.71s1.61-3.34,1.61-6.59V53.11H250.61z"></path> <path d="M266.34,79.02V56.16h-8.54V53.1h20.54v3.06h-8.57v22.86H266.34z"></path> <path d="M280.16,66.4c0-4.3,1.15-7.67,3.46-10.1s5.29-3.65,8.94-3.65c2.39,0,4.55,0.57,6.47,1.71s3.39,2.74,4.39,4.78 c1.01,2.04,1.51,4.36,1.51,6.96c0,2.63-0.53,4.98-1.59,7.05s-2.56,3.64-4.51,4.71s-4.04,1.6-6.29,1.6c-2.44,0-4.62-0.59-6.54-1.77 s-3.38-2.79-4.37-4.83C280.66,70.83,280.16,68.68,280.16,66.4z M283.7,66.46c0,3.12,0.84,5.58,2.52,7.38s3.79,2.7,6.32,2.7 c2.58,0,4.71-0.91,6.37-2.72c1.67-1.82,2.5-4.39,2.5-7.72c0-2.11-0.36-3.95-1.07-5.52s-1.76-2.79-3.13-3.66s-2.91-1.3-4.62-1.3 c-2.43,0-4.52,0.83-6.27,2.5C284.57,59.77,283.7,62.56,283.7,66.46z"></path> <path d="M309.26,79.02V53.11h5.16l6.13,18.35c0.57,1.71,0.98,2.99,1.24,3.84c0.29-0.94,0.75-2.33,1.38-4.15l6.21-18.03h4.61v25.91 h-3.31V57.33l-7.53,21.69h-3.09l-7.5-22.06v22.06L309.26,79.02L309.26,79.02z"></path> <path d="M336.67,79.02l9.95-25.91h3.69l10.61,25.91h-3.91l-3.02-7.85h-10.83l-2.85,7.85H336.67z M344.15,68.38h8.79l-2.7-7.18 c-0.83-2.18-1.44-3.97-1.84-5.37c-0.33,1.66-0.79,3.31-1.4,4.95L344.15,68.38z"></path> <path d="M367.57,79.02V56.16h-8.54V53.1h20.54v3.06H371v22.86H367.57z"></path> <path d="M383.67,79.02V53.11h3.43v25.91L383.67,79.02L383.67,79.02z"></path> <path d="M392.11,66.4c0-4.3,1.15-7.67,3.46-10.1s5.29-3.65,8.94-3.65c2.39,0,4.55,0.57,6.47,1.71s3.39,2.74,4.39,4.78 c1.01,2.04,1.51,4.36,1.51,6.96c0,2.63-0.53,4.98-1.59,7.05s-2.56,3.64-4.51,4.71s-4.04,1.6-6.29,1.6c-2.44,0-4.62-0.59-6.54-1.77 s-3.38-2.79-4.37-4.83C392.6,70.83,392.11,68.68,392.11,66.4z M395.64,66.46c0,3.12,0.84,5.58,2.52,7.38s3.79,2.7,6.32,2.7 c2.58,0,4.71-0.91,6.37-2.72c1.67-1.82,2.5-4.39,2.5-7.72c0-2.11-0.36-3.95-1.07-5.52s-1.76-2.79-3.13-3.66s-2.91-1.3-4.62-1.3 c-2.43,0-4.52,0.83-6.27,2.5C396.52,59.77,395.64,62.56,395.64,66.46z"></path> <path d="M421.27,79.02V53.11h3.52l13.61,20.35V53.11h3.29v25.91h-3.52l-13.61-20.36v20.36L421.27,79.02L421.27,79.02z"></path> </g> <g> <path d="M209.28,39.31V5.32h25.21v5.75h-18.34v7.54h17.07v5.73h-17.07v9.25h18.99v5.73L209.28,39.31L209.28,39.31z"></path> <path d="M240.93,5.32h12.54c2.83,0,4.99,0.22,6.47,0.65c1.99,0.59,3.7,1.63,5.12,3.13s2.5,3.33,3.25,5.51s1.11,4.85,1.11,8.04 c0,2.8-0.35,5.21-1.04,7.23c-0.85,2.47-2.06,4.47-3.64,6.01c-1.19,1.16-2.8,2.06-4.82,2.71c-1.52,0.48-3.54,0.72-6.08,0.72h-12.92 v-34H240.93z M247.79,11.07v22.52h5.12c1.92,0,3.3-0.11,4.15-0.33c1.11-0.28,2.04-0.75,2.77-1.41c0.73-0.66,1.33-1.76,1.8-3.28 c0.46-1.52,0.7-3.6,0.7-6.23s-0.23-4.65-0.7-6.05c-0.46-1.41-1.11-2.5-1.95-3.29c-0.83-0.79-1.89-1.32-3.18-1.6 c-0.96-0.22-2.84-0.33-5.63-0.33L247.79,11.07L247.79,11.07z"></path> <path d="M291.06,26.82v-5.73h14.79v13.54c-1.44,1.39-3.52,2.62-6.25,3.68s-5.49,1.59-8.29,1.59c-3.56,0-6.66-0.75-9.3-2.24 c-2.64-1.49-4.63-3.63-5.96-6.4c-1.33-2.78-1.99-5.79-1.99-9.06c0-3.54,0.74-6.69,2.23-9.44c1.48-2.75,3.66-4.86,6.52-6.33 c2.18-1.13,4.89-1.69,8.14-1.69c4.22,0,7.52,0.88,9.89,2.66c2.37,1.77,3.9,4.22,4.58,7.34l-6.82,1.28 c-0.48-1.67-1.38-2.99-2.7-3.95c-1.32-0.97-2.97-1.45-4.95-1.45c-3,0-5.38,0.95-7.15,2.85c-1.77,1.9-2.66,4.72-2.66,8.46 c0,4.04,0.9,7.06,2.69,9.08s4.14,3.03,7.05,3.03c1.44,0,2.88-0.28,4.32-0.85c1.45-0.56,2.69-1.25,3.72-2.05v-4.31h-7.86V26.82z"></path> <path d="M312.19,39.31V5.32h25.21v5.75h-18.34v7.54h17.07v5.73h-17.07v9.25h18.99v5.73L312.19,39.31L312.19,39.31z"></path> <path d="M348.68,39.31l-8.12-33.99h7.03l5.12,23.35l6.21-23.35h8.16l5.96,23.75l5.22-23.75h6.91l-8.25,33.99h-7.28l-6.77-25.41 l-6.75,25.41H348.68z"></path> <path d="M416.72,39.31h-7.47l-2.97-7.72h-13.59l-2.81,7.72h-7.28l13.24-33.99h7.26L416.72,39.31z M404.08,25.86l-4.68-12.61 l-4.59,12.61H404.08z"></path> <path d="M424.49,39.31V11.07H414.4V5.32h27.01v5.75h-10.06v28.24H424.49z"></path> <path d="M445.84,39.31V5.32h25.21v5.75h-18.34v7.54h17.07v5.73h-17.07v9.25h18.99v5.73L445.84,39.31L445.84,39.31z"></path> <path d="M477.54,39.31V5.32h14.45c3.63,0,6.27,0.31,7.92,0.92c1.65,0.61,2.96,1.7,3.95,3.26s1.48,3.35,1.48,5.36 c0,2.55-0.75,4.66-2.25,6.32c-1.5,1.66-3.74,2.71-6.72,3.14c1.48,0.87,2.71,1.82,3.68,2.85c0.97,1.04,2.27,2.88,3.91,5.52 l4.15,6.63h-8.21l-4.96-7.4c-1.76-2.64-2.97-4.31-3.62-5s-1.34-1.16-2.06-1.41c-0.73-0.25-1.88-0.38-3.46-0.38h-1.39v14.19h-6.87 V39.31z M484.4,19.7h5.08c3.29,0,5.35-0.14,6.17-0.42s1.46-0.76,1.92-1.44c0.46-0.68,0.7-1.53,0.7-2.55 c0-1.14-0.31-2.07-0.92-2.77s-1.47-1.15-2.58-1.33c-0.56-0.08-2.23-0.12-5.01-0.12h-5.36V19.7z"></path> </g> </g> <g id="Layer_2_1_"> <g> <rect x="0.69" y="1.37" class="st0" width="123" height="72"></rect> <g> <line class="st1" x1="196.29" y1="85.24" x2="196.29" y2="1.58"></line> <rect x="195.29" y="1.58" class="st0" width="2" height="83.66"></rect> </g> <rect x="186.99" y="1.44" transform="matrix(0.9965 -0.0841 0.0841 0.9965 -2.9854 15.9635)" class="st0" width="2" height="83.96"></rect> <rect x="178.62" y="1.92" transform="matrix(0.9858 -0.168 0.168 0.9858 -4.7233 30.7914)" class="st0" width="2" height="82.79"></rect> <rect x="170.47" y="1.21" transform="matrix(0.9664 -0.2571 0.2571 0.9664 -5.3358 45.5361)" class="st0" width="2" height="83.92"></rect> <rect x="162.05" y="1.43" transform="matrix(0.9394 -0.3429 0.3429 0.9394 -4.9228 58.5251)" class="st0" width="2" height="83.51"></rect> <rect x="153.71" y="1.53" transform="matrix(0.9052 -0.425 0.425 0.9052 -3.7259 69.8523)" class="st0" width="2" height="83.5"></rect> <rect x="145.22" y="1.72" transform="matrix(0.8633 -0.5047 0.5047 0.8633 -1.8941 79.7237)" class="st0" width="2" height="83.28"></rect> <rect x="56.57" y="8.59" transform="matrix(0.1929 -0.9812 0.9812 0.1929 3.7005 91.6683)" class="st2" width="2" height="70"></rect> <rect x="47.18" y="10.6" transform="matrix(0.1127 -0.9936 0.9936 0.1127 -1.537 87.416)" class="st2" width="2" height="67.94"></rect> <rect x="6.98" y="44.1" class="st2" width="44.8" height="2"></rect> <g> <polygon class="st2" points="50.87,25.11 50.03,26.93 123.96,61.32 123.96,59.12 "></polygon> <polygon class="st0" points="132.89,63.27 123.96,59.12 123.96,61.32 132.04,65.09 "></polygon> </g> <g> <polygon class="st1" points="123.96,47.54 123.96,50.91 144.37,68.12 "></polygon> <polygon class="st0" points="162.54,76.89 123.96,21.65 123.96,25.14 160.9,78.04 "></polygon> <polygon class="st2" points="114.47,8.06 112.83,9.21 123.96,25.14 123.96,21.65 "></polygon> <polygon class="st0" points="155.53,75.96 157.07,74.68 123.96,35.14 123.96,38.25 "></polygon> <polygon class="st2" points="101.84,11.83 123.96,38.25 123.96,35.14 103.37,10.55 "></polygon> <polygon class="st2" points="90.95,14.25 123.96,47.54 123.96,44.7 92.37,12.84 "></polygon> <polygon class="st0" points="144.37,68.12 146.41,69.85 146.26,70.03 149.86,73.67 151.28,72.26 123.96,44.7 123.96,47.54 "></polygon> <polygon class="st2" points="82.39,15.85 81.1,17.38 123.96,53.53 123.96,50.91 "></polygon> <polygon class="st0" points="123.96,50.91 123.96,53.53 145.12,71.38 146.26,70.03 144.37,68.12 "></polygon> <polygon class="st0" points="144.37,68.12 146.26,70.03 146.41,69.85 "></polygon> <rect x="69.52" y="4.02" transform="matrix(0.2769 -0.9609 0.9609 0.2769 8.544 99.7021)" class="st2" width="2" height="80.31"></rect> </g> <g> <polygon class="st2" points="71.48,18.76 70.33,20.4 123.96,58.06 123.96,55.62 "></polygon> <polygon class="st0" points="139.49,66.52 123.96,55.62 123.96,58.06 138.34,68.16 "></polygon> </g> <g> <polygon class="st2" points="60.46,21.68 59.46,23.41 123.96,60.45 123.96,58.14 "></polygon> <polygon class="st0" points="133.48,63.61 123.96,58.14 123.96,60.45 132.48,65.34 "></polygon> </g> <g> <polygon class="st2" points="41.39,28.56 40.69,30.43 123.96,62.02 123.96,59.88 "></polygon> <polygon class="st0" points="132.82,63.24 123.96,59.88 123.96,62.02 132.11,65.11 "></polygon> </g> </g> </g> </svg> 